<?xml version="1.0" encoding="utf-8"?>
<!-- Generator: Adobe Illustrator 17.1.0, SVG Export Plug-In . SVG Version: 6.00 Build 0)  -->
<!DOCTYPE svg PUBLIC "-//W3C//DTD SVG 1.1//EN" "http://www.w3.org/Graphics/SVG/1.1/DTD/svg11.dtd">
<svg version="1.1" id="dollar-coin" xmlns="http://www.w3.org/2000/svg" xmlns:xlink="http://www.w3.org/1999/xlink" x="0px"
	 y="0px" viewBox="0 0 1010 1010" enable-background="new 0 0 1010 1010" xml:space="preserve">
<g id="dollar-coin-dollar-coin">
	<circle id="dollar-coin-label" fill="#ACAF48" cx="505" cy="505" r="505"/>
	<g id="dollar-coin-dollar-coin_1_">
		<g>
			<path fill="#FFFFFF" d="M787.7998,505c0,156.1748-126.6045,282.7998-282.7803,282.7998
				c-156.2046,0-282.8193-126.625-282.8193-282.7998c0-156.1953,126.6147-282.7998,282.8193-282.7998
				C661.1953,222.2002,787.7998,348.8047,787.7998,505z"/>
			<path fill="#454545" d="M505.0195,797.9004C343.499,797.9004,212.1001,666.501,212.1001,505
				c0-161.5015,131.3989-292.9004,292.9194-292.9004c161.4922,0,292.8809,131.3989,292.8809,292.9004
				C797.9004,666.501,666.5117,797.9004,505.0195,797.9004L505.0195,797.9004z M505.0195,232.2998
				c-150.375,0-272.7197,122.3345-272.7197,272.7002c0,150.3652,122.3447,272.7002,272.7197,272.7002
				c150.3565,0,272.6807-122.335,272.6807-272.7002C777.7002,354.6343,655.376,232.2998,505.0195,232.2998L505.0195,232.2998z"/>
		</g>
		<path fill="#FFB933" d="M722.1504,505c0,119.9473-97.2129,217.1504-217.1504,217.1504
			c-119.9277,0-217.1499-97.2031-217.1499-217.1504c0-119.9277,97.2222-217.1504,217.1499-217.1504
			C624.9375,287.8496,722.1504,385.0723,722.1504,505z"/>
		<g>
			<g>
				<path fill="#454545" d="M505.0098,654.4287c-5.5826,0-10.0996-4.5176-10.0996-10.1006V365.6514
					c0-5.5826,4.517-10.0996,10.0996-10.0996c5.583,0,10.1001,4.517,10.1001,10.0996v278.6767
					C515.1099,649.9111,510.5928,654.4287,505.0098,654.4287L505.0098,654.4287z"/>
			</g>
			<g>
				<path fill="#454545" d="M616.7119,420.2842L616.7119,420.2842l-223.4331-0.0196c-5.5825,0-10.1001-4.5273-10.1001-10.1
					c0-5.5728,4.5274-10.1001,10.1001-10.1001l0,0l223.4331,0.0195c5.582,0,10.0995,4.5273,10.0995,10.1001
					C626.8115,415.7568,622.2842,420.2842,616.7119,420.2842L616.7119,420.2842z"/>
			</g>
			<g>
				<path fill="#454545" d="M616.7119,513.167H393.2788c-5.5825,0-10.1001-4.5176-10.1001-10.1006
					c0-5.582,4.5176-10.0996,10.1001-10.0996h223.4331c5.582,0,10.0995,4.5176,10.0995,10.0996
					C626.8115,508.6494,622.2939,513.167,616.7119,513.167L616.7119,513.167z"/>
			</g>
			<g>
				<path fill="#454545" d="M616.7119,609.9062H393.2788c-5.5825,0-10.1001-4.5175-10.1001-10.1005s4.5176-10.0996,10.1001-10.0996
					h223.4331c5.582,0,10.0995,4.5166,10.0995,10.0996S622.2939,609.9062,616.7119,609.9062L616.7119,609.9062z"/>
			</g>
			<g>
				<path fill="#454545" d="M393.2788,507.1895L393.2788,507.1895c-5.5825,0-10.1001-4.5274-10.1001-10.0997l0.0293-82.3193
					c0-5.5825,4.5274-10.0996,10.1006-10.0996l0,0c5.582,0,10.0996,4.5269,10.0996,10.0996l-0.0293,82.3193
					C403.3789,502.6719,398.8516,507.1895,393.2788,507.1895L393.2788,507.1895z"/>
			</g>
			<g>
				<path fill="#454545" d="M616.7119,609.373c-5.583,0-10.1006-4.5175-10.1006-10.0996v-96.1875
					c0-5.582,4.5176-10.0996,10.1006-10.0996c5.582,0,10.0995,4.5176,10.0995,10.0996v96.1875
					C626.8115,604.8555,622.2939,609.373,616.7119,609.373L616.7119,609.373z"/>
			</g>
		</g>
	</g>
</g>
</svg>
