<svg height="512pt" viewBox="0 0 512 512" width="512pt" xmlns="http://www.w3.org/2000/svg"><path d="m480.617188 154.714844c-16.8125-17.648438-38.484376-29.210938-62.113282-33.363282v-16.304687c0-57.921875-47.125-105.046875-105.050781-105.046875h-8.699219c-52.832031 0-96.675781 39.203125-103.980468 90.042969h-25.542969c-55.214844 0-100.945313 41.402343-107.777344 94.789062-38.238281 6.46875-67.453125 39.824219-67.453125 79.867188 0 44.667969 36.339844 81.003906 81.003906 81.003906h318.132813c62.121093 0 112.660156-50.539063 112.660156-112.601563.113281-29.324218-10.960937-57.164062-31.179687-78.386718zm0 0" fill="#60a7e6"/><path d="m480.617188 154.714844c-16.8125-17.648438-38.484376-29.210938-62.113282-33.363282v-16.304687c0-57.921875-47.125-105.046875-105.050781-105.046875h-4.535156v345.703125h90.21875c62.121093 0 112.660156-50.539063 112.660156-112.601563.113281-29.324218-10.960937-57.164062-31.179687-78.386718zm0 0" fill="#4f77de"/><path d="m272.226562 294.183594h-30.011718v-74.230469c0-10.523437-8.5625-19.085937-19.085938-19.085937-10.523437 0-19.085937 8.5625-19.085937 19.085937v74.230469h-30.011719v-74.230469c0-27.070313 22.023438-49.097656 49.097656-49.097656 27.070313 0 49.097656 22.027343 49.097656 49.097656zm0 0" fill="#e9edf5"/><path d="m223.128906 170.859375v30.007813c10.523438 0 19.085938 8.5625 19.085938 19.089843v74.226563h30.011718v-74.230469c0-27.070313-22.027343-49.09375-49.097656-49.09375zm0 0" fill="#dce1eb"/><path d="m110.390625 279.179688h225.476563v232.820312h-225.476563zm0 0" fill="#fd982c"/><path d="m223.128906 279.179688h112.742188v232.820312h-112.742188zm0 0" fill="#fa502e"/><path d="m223.128906 362.339844c-12.789062 0-23.191406 10.402344-23.191406 23.191406 0 7.070312 3.179688 13.40625 8.1875 17.664062v28.851563h30.007812v-28.851563c5.003907-4.257812 8.1875-10.59375 8.1875-17.664062 0-12.789062-10.402343-23.191406-23.191406-23.191406zm0 0" fill="#e9edf5"/><path d="m223.128906 362.339844v69.707031h15.003906v-28.851563c5.003907-4.257812 8.1875-10.59375 8.1875-17.664062 0-12.789062-10.402343-23.191406-23.191406-23.191406zm0 0" fill="#dce1eb"/></svg>