<?xml version="1.0" encoding="iso-8859-1"?>
<!-- Generator: Adobe Illustrator 19.0.0, SVG Export Plug-In . SVG Version: 6.00 Build 0)  -->
<svg version="1.1" id="Capa_1" xmlns="http://www.w3.org/2000/svg" xmlns:xlink="http://www.w3.org/1999/xlink" x="0px" y="0px"
	 viewBox="0 0 512 512" style="enable-background:new 0 0 512 512;" xml:space="preserve">
<rect x="241" style="fill:#BDBCC1;" width="30" height="64"/>
<rect x="209" y="38.33" style="fill:#8F8E92;" width="94" height="90.99"/>
<rect x="256.1" y="38.33" style="fill:#57575A;" width="46.9" height="90.99"/>
<path style="fill:#DFDEE0;" d="M409.495,238.184C405.747,156.758,338.335,91.667,256,91.667s-149.747,65.092-153.495,146.518
	L409.495,238.184L409.495,238.184z"/>
<path style="fill:#BEBDC2;" d="M255.965,238.184h153.53C405.747,156.758,338.335,91.667,256,91.667c-0.012,0-0.023,0-0.035,0
	V238.184z"/>
<rect x="81" y="224" style="fill:#BDBCC1;" width="350" height="89.67"/>
<rect x="255.97" y="224" style="fill:#8F8E92;" width="175.03" height="89.67"/>
<polygon style="fill:#DFDEE0;" points="24.25,486 487.75,486 487.75,313.667 512,313.667 512,283.667 0,283.667 0,313.667 
	24.25,313.667 "/>
<polygon style="fill:#BEBDC2;" points="487.75,486 487.75,313.667 512,313.667 512,283.667 256,283.667 256,486 "/>
<g>
	<rect x="85.33" y="339.67" style="fill:#FFFFFF;" width="30" height="42.667"/>
	<rect x="85.33" y="413.33" style="fill:#FFFFFF;" width="30" height="42.667"/>
</g>
<g>
	<rect x="396.67" y="413.33" style="fill:#DFDEE0;" width="30" height="42.667"/>
	<rect x="396.67" y="339.67" style="fill:#DFDEE0;" width="30" height="42.667"/>
</g>
<polygon style="fill:#8F8E92;" points="323.416,486 323.416,385.503 256,352 188.583,385.503 188.583,486 "/>
<polygon style="fill:#57575A;" points="323.416,486 323.416,385.503 256,352 255.965,352.018 255.965,486 "/>
<polygon style="fill:#FFFFFF;" points="203.583,486 203.583,394.799 256,368.75 308.416,394.799 308.416,486 338.416,486 
	338.416,376.207 256,335.25 173.583,376.207 173.583,486 "/>
<polygon style="fill:#DFDEE0;" points="308.416,394.799 308.416,486 338.416,486 338.416,376.207 256,335.25 256,335.25 256,368.75 
	256,368.75 "/>
<rect y="482" style="fill:#60DD4D;" width="512" height="30"/>
<rect x="256" y="482" style="fill:#1EBA4A;" width="256" height="30"/>
<g>
</g>
<g>
</g>
<g>
</g>
<g>
</g>
<g>
</g>
<g>
</g>
<g>
</g>
<g>
</g>
<g>
</g>
<g>
</g>
<g>
</g>
<g>
</g>
<g>
</g>
<g>
</g>
<g>
</g>
</svg>
