<svg id="Layer_3" enable-background="new 0 0 64 64" height="512" viewBox="0 0 64 64" width="512" xmlns="http://www.w3.org/2000/svg"><path d="m57 13h5v2h-5z" fill="#4d5d7a"/><path d="m6 14h-4v4h4" fill="#8892a0"/><path d="m60 22h-54v-10h51l3 5z" fill="#4d5d7a"/><path d="m38 12 10 10h6l-10-10" fill="#f5b953"/><path d="m26 12 10 10h6l-10-10" fill="#f5b953"/><path d="m61.772 46.354-5.373-15.223c-.264-.749-.399-1.536-.399-2.33v-.468c0-1.515.491-2.988 1.4-4.2l1.6-2.133h-48l2 4h10v5c0 3.314 2.686 6 6 6h12v8.338c0 1.087.296 2.154.855 3.087l.397.662c1.085 1.807 3.038 2.913 5.145 2.913h10.603c2.209 0 4-1.791 4-4v-.315c0-.453-.077-.904-.228-1.331zm-26.272-12.354h-6c-1.933 0-3.5-1.567-3.5-3.5s1.567-3.5 3.5-3.5h6c1.933 0 3.5 1.567 3.5 3.5s-1.567 3.5-3.5 3.5z" fill="#8892a0"/><path d="m45 29v14.789c0 .79.234 1.562.672 2.219l.141.211c.741 1.113 1.99 1.781 3.328 1.781h12.859" fill="#4d5d7a"/><path d="m45 34 14 14h-6l-8-8" fill="#f5b953"/><path d="m31.707 34.707-1.414-1.414 2.707-2.707v-3.586h2v4c0 .265-.105.52-.293.707z" fill="#4d5d7a"/></svg>