<svg height="511pt" viewBox="0 0 511 511.99996" width="511pt" xmlns="http://www.w3.org/2000/svg"><path d="m436.457031 150.984375h-239.976562c-41.394531 0-74.992188 33.597656-74.992188 74.992187v149.988282c0 41.394531 33.597657 74.992187 74.992188 74.992187h145.484375l86.09375 58.59375c4.800781 2.996094 10.796875 3.296875 15.597656.597657 4.800781-2.699219 7.800781-7.796876 7.800781-13.195313v-47.496094c34.195313-6.902343 60.992188-37.199219 60.992188-73.492187v-149.988282c0-41.394531-34.597657-74.992187-75.992188-74.992187zm0 0" fill="#ff7816"/><path d="m512.449219 225.976562v149.988282c0 36.292968-26.796875 66.589844-60.992188 73.492187v47.496094c0 5.398437-3 10.496094-7.800781 13.195313-4.796875 2.699218-10.796875 2.402343-15.597656-.597657l-86.09375-58.59375h-25.496094v-299.972656h119.988281c41.394531 0 75.992188 33.597656 75.992188 74.992187zm0 0" fill="#ff4b00"/><path d="m316.46875 0h-239.976562c-41.394532 0-75.992188 33.597656-75.992188 74.992188v150.984374c0 36.296876 26.796875 66.59375 60.992188 73.496094v46.492188c0 5.402344 3 10.5 7.800781 13.199218 4.796875 2.699219 10.800781 2.398438 15.601562-.601562l86.089844-57.59375h145.484375c41.394531 0 74.992188-33.59375 74.992188-74.992188v-150.984374c0-41.394532-33.597657-74.992188-74.992188-74.992188zm0 0" fill="#3aaaff"/><path d="m391.460938 74.992188v150.984374c0 41.398438-33.597657 74.992188-74.992188 74.992188h-119.988281v-300.96875h119.988281c41.394531 0 74.992188 33.597656 74.992188 74.992188zm0 0" fill="#0095ff"/><g fill="#a8ebfa"><path d="m241.476562 89.992188c0 8.398437-6.597656 14.996093-15 14.996093h-119.988281c-8.398437 0-14.996093-6.597656-14.996093-14.996093 0-8.402344 6.597656-15 14.996093-15h119.988281c8.402344 0 15 6.597656 15 15zm0 0"/><path d="m241.476562 150.984375c0 8.398437-6.597656 15-15 15h-119.988281c-8.398437 0-14.996093-6.601563-14.996093-15s6.597656-14.996094 14.996093-14.996094h119.988281c8.402344 0 15 6.597657 15 14.996094zm0 0"/><path d="m301.46875 210.980469c0 8.398437-6.597656 14.996093-14.996094 14.996093h-179.984375c-8.398437 0-14.996093-6.597656-14.996093-14.996093 0-8.402344 6.597656-15 14.996093-15h179.984375c8.398438 0 14.996094 6.597656 14.996094 15zm0 0"/></g><path d="m301.46875 89.992188c0 8.28125-6.714844 14.996093-14.996094 14.996093-8.285156 0-15-6.714843-15-14.996093 0-8.285157 6.714844-15 15-15 8.28125 0 14.996094 6.714843 14.996094 15zm0 0" fill="#76e2f8"/><path d="m301.46875 150.984375c0 8.285156-6.714844 15-14.996094 15-8.285156 0-15-6.714844-15-15 0-8.28125 6.714844-14.996094 15-14.996094 8.28125 0 14.996094 6.714844 14.996094 14.996094zm0 0" fill="#76e2f8"/><path d="m421.457031 360.964844c0 8.398437-6.597656 15-14.996093 15h-179.984376c-8.398437 0-14.996093-6.601563-14.996093-15 0-8.398438 6.597656-15 14.996093-15h179.984376c8.398437 0 14.996093 6.601562 14.996093 15zm0 0" fill="#ffd400"/><path d="m226.476562 165.984375h-29.996093v-29.996094h29.996093c8.402344 0 15 6.597657 15 14.996094s-6.597656 15-15 15zm0 0" fill="#76e2f8"/><path d="m226.476562 104.988281h-29.996093v-29.996093h29.996093c8.402344 0 15 6.597656 15 15 0 8.398437-6.597656 14.996093-15 14.996093zm0 0" fill="#76e2f8"/><path d="m301.46875 210.980469c0 8.398437-6.597656 14.996093-14.996094 14.996093h-89.992187v-29.996093h89.992187c8.398438 0 14.996094 6.597656 14.996094 15zm0 0" fill="#76e2f8"/><path d="m421.457031 360.964844c0 8.398437-6.597656 15-14.996093 15h-89.992188v-30h89.992188c8.398437 0 14.996093 6.601562 14.996093 15zm0 0" fill="#fdbf00"/></svg>