<?xml version="1.0" encoding="iso-8859-1"?>
<!-- Generator: Adobe Illustrator 19.0.0, SVG Export Plug-In . SVG Version: 6.00 Build 0)  -->
<svg version="1.1" id="Layer_1" xmlns="http://www.w3.org/2000/svg" xmlns:xlink="http://www.w3.org/1999/xlink" x="0px" y="0px"
	 viewBox="0 0 512 512" style="enable-background:new 0 0 512 512;" xml:space="preserve">
<path style="fill:#54CCFF;" d="M511.443,239.972v-0.668c-3.005-47.304-19.033-91.158-44.41-128
	c-6.344-9.238-13.245-18.143-20.703-26.379C402.922,36.73,341.482,5.009,272.696,0.557c-4.118-0.223-8.237-0.445-12.466-0.445
	C258.783,0,257.447,0,256,0c-1.447,0-2.783,0-4.23,0.111c-4.23,0-8.348,0.223-12.466,0.445
	C170.518,5.009,109.078,36.73,65.67,84.925c-7.457,8.237-14.358,17.141-20.703,26.379C19.59,148.146,3.562,192,0.557,239.304
	C0.223,244.758,0,250.435,0,256c0,5.565,0.223,11.242,0.557,16.696c3.005,47.304,19.033,91.158,44.41,128
	c6.344,9.238,13.245,18.143,20.703,26.379c43.409,48.195,104.849,79.917,173.635,84.369c4.118,0.223,8.237,0.445,12.466,0.445
	C253.217,512,254.553,512,256,512c1.447,0,2.783,0,4.23-0.111c4.23,0,8.348-0.223,12.466-0.445
	c68.786-4.452,130.226-36.174,173.635-84.369c7.457-8.237,14.358-17.141,20.703-26.379c25.377-36.842,41.405-80.696,44.41-128
	v-0.668C511.777,266.797,512,261.343,512,256C512,250.657,511.777,245.203,511.443,239.972z"/>
<path style="fill:#4BB8E6;" d="M260.23,511.889c4.23,0,8.348-0.223,12.466-0.445c68.786-4.452,130.226-36.174,173.635-84.369
	c7.457-8.237,14.358-17.141,20.703-26.379c25.377-36.842,41.405-80.696,44.41-128v-0.668C511.777,266.797,512,261.343,512,256
	c0-5.343-0.223-10.797-0.557-16.028v-0.668c-3.005-47.304-19.033-91.158-44.41-128c-6.344-9.238-13.245-18.143-20.703-26.379
	C402.922,36.73,341.482,5.009,272.696,0.557c-4.118-0.223-8.237-0.445-12.466-0.445C258.783,0,257.447,0,256,0v512
	C257.447,512,258.783,512,260.23,511.889z"/>
<g>
	<path style="fill:#4DA6FF;" d="M272.696,0.557v510.887c-4.118,0.223-8.237,0.445-12.466,0.445C258.783,512,257.447,512,256,512
		c-1.447,0-2.783,0-4.23-0.111c-4.23,0-8.348-0.223-12.466-0.445V0.557c4.118-0.223,8.237-0.445,12.466-0.445
		C253.217,0,254.553,0,256,0c1.447,0,2.783,0,4.23,0.111C264.459,0.111,268.577,0.334,272.696,0.557z"/>
	<path style="fill:#4DA6FF;" d="M446.33,84.925C388.23,121.099,322.115,139.242,256,139.242c-66.226,0-132.452-18.254-190.33-54.317
		c-7.457,8.237-14.358,17.141-20.703,26.379c63.332,40.07,136.682,61.217,211.033,61.329
		c72.348,0.111,145.586-19.812,211.033-61.329C460.689,102.066,453.788,93.162,446.33,84.925z"/>
</g>
<path style="fill:#E6EEFF;" d="M256,339.367c-73.35,0-146.699,20.48-211.033,61.329c6.344,9.238,13.245,18.143,20.703,26.379
	c57.767-36.063,123.882-54.316,190.33-54.316c65.892,0,132.007,17.92,190.33,54.316c7.457-8.237,14.358-17.141,20.703-26.379
	C402.81,359.958,329.461,339.367,256,339.367z"/>
<path style="fill:#DAE2F2;" d="M467.033,400.696c-6.344,9.238-13.245,18.143-20.703,26.379
	c-58.323-36.397-124.438-54.316-190.33-54.316v-33.391C329.461,339.367,402.81,359.958,467.033,400.696z"/>
<g>
	<path style="fill:#4596E6;" d="M260.23,511.889c4.23,0,8.348-0.223,12.466-0.445V0.557c-4.118-0.223-8.237-0.445-12.466-0.445
		C258.783,0,257.447,0,256,0v512C257.447,512,258.783,512,260.23,511.889z"/>
	<path style="fill:#4596E6;" d="M467.033,111.304c-65.447,41.517-138.685,61.44-211.033,61.329v-33.391
		c66.115,0,132.23-18.143,190.33-54.317C453.788,93.162,460.689,102.066,467.033,111.304z"/>
</g>
<path style="fill:#4DA6FF;" d="M260.23,0.111C258.783,0,257.447,0,256,0c-1.447,0-2.783,0-4.23,0.111
	C155.715,5.12,116.87,156.494,116.87,256c0,100.842,39.402,250.88,134.901,255.889C253.217,512,254.553,512,256,512
	c1.447,0,2.783,0,4.23-0.111C355.506,506.88,395.13,357.732,395.13,256S354.95,5.12,260.23,0.111z M256,478.609
	c-72.793,0-105.739-138.017-105.739-222.609c0-104.737,41.405-222.609,105.739-222.609c72.793,0,105.739,138.017,105.739,222.609
	C361.739,372.647,314.991,478.609,256,478.609z"/>
<path style="fill:#4596E6;" d="M395.13,256c0,101.732-39.624,250.88-134.901,255.889C258.783,512,257.447,512,256,512v-33.391
	c58.991,0,105.739-105.962,105.739-222.609c0-84.591-32.946-222.609-105.739-222.609V0c1.447,0,2.783,0,4.23,0.111
	C354.95,5.12,395.13,154.268,395.13,256z"/>
<path style="fill:#E6EEFF;" d="M512,256c0,5.343-0.223,10.797-0.557,16.028v0.668H0.557C0.223,267.242,0,261.565,0,256
	c0-5.565,0.223-11.242,0.557-16.696h510.887v0.668C511.777,245.203,512,250.657,512,256z"/>
<path style="fill:#DAE2F2;" d="M511.443,239.304H256v33.391h255.443v-0.668C511.777,266.797,512,261.343,512,256
	c0-5.343-0.223-10.797-0.557-16.028V239.304z"/>
<path style="fill:#E55639;" d="M461.913,512H50.087C22.424,512,0,489.576,0,461.913V261.565c0-27.662,22.424-50.087,50.087-50.087
	h411.826c27.662,0,50.087,22.424,50.087,50.087v200.348C512,489.576,489.576,512,461.913,512z"/>
<path style="fill:#CF4529;" d="M461.913,211.478H256V512h205.913C489.576,512,512,489.576,512,461.913V261.565
	C512,233.903,489.576,211.478,461.913,211.478z"/>
<g>
	<path style="fill:#E6EEFF;" d="M122.435,445.217H89.043c-9.217,0-16.696-7.473-16.696-16.696V294.957
		c0-9.223,7.479-16.696,16.696-16.696s16.696,7.473,16.696,16.696v116.87h16.696c9.217,0,16.696,7.473,16.696,16.696
		S131.652,445.217,122.435,445.217z"/>
	<path style="fill:#E6EEFF;" d="M189.217,445.217c-9.217,0-16.696-7.473-16.696-16.696V294.957c0-9.223,7.479-16.696,16.696-16.696
		c9.217,0,16.696,7.473,16.696,16.696v133.565C205.913,437.744,198.435,445.217,189.217,445.217z"/>
	<path style="fill:#E6EEFF;" d="M339.478,298.963l-33.391,133.565c-1.781,7.457-8.459,12.689-16.139,12.689
		s-14.358-5.231-16.25-12.689L256,361.739l-15.694-62.776c-2.226-8.904,3.228-17.92,12.243-20.257
		c1.113-0.334,2.337-0.445,3.45-0.445c7.68-0.334,14.803,4.897,16.696,12.689l17.252,68.786l17.141-68.786
		c2.226-9.016,11.241-14.47,20.256-12.243C336.362,281.043,341.816,290.059,339.478,298.963z"/>
</g>
<g>
	<path style="fill:#DAE2F2;" d="M422.957,378.435c9.217,0,16.696-7.473,16.696-16.696s-7.479-16.696-16.696-16.696h-16.696v-33.391
		h16.696c9.217,0,16.696-7.473,16.696-16.696s-7.479-16.696-16.696-16.696h-33.391c-9.217,0-16.696,7.473-16.696,16.696v133.565
		c0,9.223,7.479,16.696,16.696,16.696h33.391c9.217,0,16.696-7.473,16.696-16.696s-7.479-16.696-16.696-16.696h-16.696v-33.391
		H422.957z"/>
	<path style="fill:#DAE2F2;" d="M339.478,298.963l-33.391,133.565c-1.781,7.457-8.459,12.689-16.139,12.689
		s-14.358-5.231-16.25-12.689L256,361.739v-83.478c7.68-0.334,14.803,4.897,16.696,12.689l17.252,68.786l17.141-68.786
		c2.226-9.016,11.241-14.47,20.256-12.243C336.362,281.043,341.816,290.059,339.478,298.963z"/>
</g>
<g>
</g>
<g>
</g>
<g>
</g>
<g>
</g>
<g>
</g>
<g>
</g>
<g>
</g>
<g>
</g>
<g>
</g>
<g>
</g>
<g>
</g>
<g>
</g>
<g>
</g>
<g>
</g>
<g>
</g>
</svg>
