<?xml version="1.0" encoding="iso-8859-1"?>
<!-- Generator: Adobe Illustrator 19.0.0, SVG Export Plug-In . SVG Version: 6.00 Build 0)  -->
<svg xmlns="http://www.w3.org/2000/svg" xmlns:xlink="http://www.w3.org/1999/xlink" version="1.1" id="Layer_1" x="0px" y="0px" viewBox="0 0 512 512" style="enable-background:new 0 0 512 512;" xml:space="preserve" width="512px" height="512px">
<g>
	<g>
		<path d="M171.363,224.842l-81.818,81.819l13.258,13.258L0,422.72l89.28,89.279l102.803-102.803l13.258,13.258l81.818-81.818    L171.363,224.842z M89.281,466.02l-43.3-43.3l79.813-79.813l43.3,43.3L89.281,466.02z M135.526,306.661l35.837-35.838    l69.815,69.815l-35.838,35.837L135.526,306.661z" fill="#FFFFFF"/>
	</g>
</g>
<g>
	<g>
		<path d="M512,89.28l-89.279-89.28L319.918,102.803L306.66,89.546l-81.819,81.818l17.677,17.677l-29.413,29.413l80.44,80.441    l29.414-29.413l17.677,17.677l81.817-81.819l-13.258-13.258L512,89.28z M293.545,252.915l-34.46-34.461l6.423-6.423l34.46,34.46    L293.545,252.915z M340.636,241.178l-69.815-69.815l35.838-35.837l34.907,34.907l34.907,34.908L340.636,241.178z M364.557,147.444    l-21.649-21.65L422.72,45.98l43.3,43.3l-79.814,79.813L364.557,147.444z" fill="#FFFFFF"/>
	</g>
</g>
<g>
</g>
<g>
</g>
<g>
</g>
<g>
</g>
<g>
</g>
<g>
</g>
<g>
</g>
<g>
</g>
<g>
</g>
<g>
</g>
<g>
</g>
<g>
</g>
<g>
</g>
<g>
</g>
<g>
</g>
</svg>
