<svg height="512pt" viewBox="0 -31 512 512" width="512pt" xmlns="http://www.w3.org/2000/svg"><path d="m360.5 68.398438h-209l30-60c2.699219-5.097657 7.800781-8.398438 13.5-8.398438h122c5.699219 0 10.800781 3.300781 13.5 8.398438zm0 0" fill="#fdbf00"/><path d="m360.5 68.398438h-104.5v-68.398438h61c5.699219 0 10.800781 3.300781 13.5 8.398438zm0 0" fill="#ff9f00"/><path d="m467 210c-24.8125 0-45-20.1875-45-45s20.1875-45 45-45 45 20.1875 45 45-20.1875 45-45 45zm0 0" fill="#ff9f00"/><path d="m45 210c-24.8125 0-45-20.1875-45-45s20.1875-45 45-45 45 20.1875 45 45-20.1875 45-45 45zm0 0" fill="#fdbf00"/><path d="m451.398438 191.398438-24.300782-97.199219c-4.796875-20.101563-22.796875-34.199219-43.5-34.199219h-255.195312c-20.703125 0-38.703125 14.097656-43.5 34.199219l-24.300782 97.199219c-1.203124 4.5-.300781 9.300781 2.699219 12.902343 2.699219 3.597657 7.199219 5.699219 11.699219 5.699219h362c4.5 0 9-2.101562 11.699219-5.699219 3-3.601562 3.902343-8.402343 2.699219-12.902343zm0 0" fill="#ffd400"/><path d="m448.699219 204.300781c-2.699219 3.597657-7.199219 5.699219-11.699219 5.699219h-181v-150h127.597656c20.703125 0 38.703125 14.097656 43.5 34.199219l24.300782 97.199219c1.203124 4.5.300781 9.300781-2.699219 12.902343zm0 0" fill="#fdbf00"/><path d="m398 101.398438c-1.5-6.597657-7.5-11.398438-14.402344-11.398438h-255.195312c-6.902344 0-12.902344 4.800781-14.402344 11.398438l-19.800781 78.601562 34.199219 30h257l32.402343-30zm0 0" fill="#53433f"/><path d="m417.800781 180-32.398437 30h-129.402344v-120h127.597656c6.902344 0 12.902344 4.800781 14.402344 11.398438zm0 0" fill="#3e322e"/><path d="m392 195c0 8.398438-6.597656 15-15 15s-15-6.601562-15-15c0-24.902344-20.097656-45-45-45s-46 20.097656-46 45c0 8.398438-6.597656 15-15 15s-15-6.601562-15-15c0-16.800781 5.398438-32.402344 15-44.699219 13.5-18.300781 36.398438-30.300781 61-30.300781 41.398438 0 75 33.601562 75 75zm0 0" fill="#68544f"/><path d="m165 360h-90c-8.289062 0-15 6.710938-15 15v30c0 24.8125 20.1875 45 45 45h30c24.8125 0 45-20.1875 45-45v-30c0-8.289062-6.710938-15-15-15zm0 0" fill="#53433f"/><path d="m437 360h-90c-8.289062 0-15 6.710938-15 15v30c0 24.8125 20.1875 45 45 45h30c24.8125 0 45-20.1875 45-45v-30c0-8.289062-6.710938-15-15-15zm0 0" fill="#3e322e"/><path d="m437 180h-362c-41.398438 0-75 33.601562-75 75v90c0 24.898438 20.097656 45 45 45h422c24.902344 0 45-20.101562 45-45v-90c0-41.398438-33.601562-75-75-75zm0 0" fill="#ffd400"/><path d="m512 255v90c0 24.898438-20.097656 45-45 45h-211v-210h181c41.398438 0 75 33.601562 75 75zm0 0" fill="#fdbf00"/><path d="m105 330c-24.8125 0-45-20.1875-45-45s20.1875-45 45-45 45 20.1875 45 45-20.1875 45-45 45zm0 0" fill="#ede9e8"/><path d="m407 330c-24.8125 0-45-20.1875-45-45s20.1875-45 45-45 45 20.1875 45 45-20.1875 45-45 45zm0 0" fill="#dfd7d5"/><path d="m195 330c-8.289062 0-15-6.710938-15-15v-30c0-8.289062 6.710938-15 15-15s15 6.710938 15 15v30c0 8.289062-6.710938 15-15 15zm0 0" fill="#5a5a5a"/><path d="m271 285v30c0 8.398438-6.597656 15-15 15s-15-6.601562-15-15v-30c0-8.402344 6.597656-15 15-15s15 6.597656 15 15zm0 0" fill="#5a5a5a"/><g fill="#444"><path d="m317 330c-8.289062 0-15-6.710938-15-15v-30c0-8.289062 6.710938-15 15-15s15 6.710938 15 15v30c0 8.289062-6.710938 15-15 15zm0 0"/><path d="m271 285v30c0 8.398438-6.597656 15-15 15v-60c8.402344 0 15 6.597656 15 15zm0 0"/></g></svg>