<?xml version="1.0" encoding="iso-8859-1"?>
<!-- Generator: Adobe Illustrator 19.0.0, SVG Export Plug-In . SVG Version: 6.00 Build 0)  -->
<svg version="1.1" id="Capa_1" xmlns="http://www.w3.org/2000/svg" xmlns:xlink="http://www.w3.org/1999/xlink" x="0px" y="0px"
	 viewBox="0 0 512.001 512.001" style="enable-background:new 0 0 512.001 512.001;" xml:space="preserve">
<path style="fill:#FEDB41;" d="M104.874,27.619c28.876,0,52.368,23.492,52.368,52.368s-23.492,52.368-52.368,52.368
	s-52.368-23.492-52.368-52.368S75.998,27.619,104.874,27.619z"/>
<path style="fill:#FCBF29;" d="M256,0c30.522,0,55.354,24.831,55.354,55.354S286.522,110.708,256,110.708
	s-55.354-24.832-55.354-55.354S225.478,0,256,0z"/>
<path style="fill:#FE9923;" d="M256,0c30.522,0,55.354,24.831,55.354,55.354S286.522,110.708,256,110.708V0z"/>
<path style="fill:#FCBF29;" d="M366.854,338.483c0,8.443-6.868,15.311-15.311,15.311s-15.312-6.868-15.312-15.311v-47.692v-59.23
	h-21.823v59.23v47.692V512h-47.496V354.048h-21.823V512h-47.496V338.483v-47.692v-59.23H175.77v59.23v47.692
	c0,8.443-6.869,15.311-15.312,15.311s-15.311-6.868-15.311-15.311V170.778c0-18.735,15.242-33.976,33.976-33.976h153.755
	c18.735,0,33.976,15.242,33.976,33.976V338.483z"/>
<path style="fill:#FE9923;" d="M366.854,338.483c0,8.443-6.868,15.311-15.311,15.311s-15.312-6.868-15.312-15.311v-47.692v-59.23
	h-21.823v59.23v47.692V512h-47.496V354.048H256V136.802h76.877c18.735,0,33.976,15.242,33.976,33.976L366.854,338.483
	L366.854,338.483z"/>
<path style="fill:#FEDB41;" d="M125.146,338.483V170.778c0-4.746,0.621-9.349,1.777-13.737h-94.78
	C14.42,157.041,0,171.461,0,189.185v158.659c0,7.987,6.498,14.485,14.485,14.485s14.486-6.498,14.486-14.485v-45.12v-56.035h20.646
	v56.035v45.12V512h44.934V362.569h20.646V512h44.934V373.786C140.811,373.609,125.146,357.845,125.146,338.483z"/>
<g>
	<path style="fill:#FCBF29;" d="M459.494,79.987c0,28.876-23.492,52.368-52.368,52.368s-52.368-23.492-52.368-52.368
		s23.492-52.368,52.368-52.368C436.002,27.619,459.494,51.111,459.494,79.987z"/>
	<path style="fill:#FCBF29;" d="M386.854,338.483V170.778c0-4.746-0.621-9.349-1.777-13.737h94.78
		c17.724,0,32.144,14.42,32.144,32.144v158.659c0,7.987-6.498,14.485-14.485,14.485s-14.486-6.498-14.486-14.485v-45.12v-56.035
		h-20.646v56.035v45.12V512H417.45V362.569h-20.646V512H351.87V373.786C371.189,373.609,386.854,357.845,386.854,338.483z"/>
</g>
<g>
</g>
<g>
</g>
<g>
</g>
<g>
</g>
<g>
</g>
<g>
</g>
<g>
</g>
<g>
</g>
<g>
</g>
<g>
</g>
<g>
</g>
<g>
</g>
<g>
</g>
<g>
</g>
<g>
</g>
</svg>
