<svg height="512pt" viewBox="0 0 512 512" width="512pt" xmlns="http://www.w3.org/2000/svg"><g fill="#596c76"><path d="m511.691406 195c0 8.398438-6.601562 15-15 15-8.402344 0-15-6.601562-15-15 0-45.601562-18.601562-86.699219-48.300781-116.699219-30-29.699219-71.101563-48.300781-116.699219-48.300781-8.402344 0-15-6.601562-15-15 0-8.402344 6.597656-15 15-15 53.699219 0 102.597656 21.898438 137.699219 57.300781 35.402344 35.097657 57.300781 84 57.300781 137.699219zm0 0"/><path d="m451.691406 195c0 8.398438-6.601562 15-15 15-8.402344 0-15-6.601562-15-15 0-28.800781-11.699218-55.199219-30.902344-74.101562-18.898437-19.199219-45.296874-30.898438-74.097656-30.898438-8.402344 0-15-6.601562-15-15 0-8.402344 6.597656-15 15-15 37.199219 0 70.800782 15 95.398438 39.601562 24.601562 24.597657 39.601562 58.199219 39.601562 95.398438zm0 0"/><path d="m391.691406 195c0 8.398438-6.601562 15-15 15-8.402344 0-15-6.601562-15-15 0-12.601562-5.101562-23.699219-13.199218-31.800781-8.101563-8.101563-19.203126-13.199219-31.800782-13.199219-8.402344 0-15-6.601562-15-15 0-8.402344 6.597656-15 15-15 20.699219 0 39.597656 8.398438 53.101563 21.898438 13.496093 13.5 21.898437 32.402343 21.898437 53.101562zm0 0"/></g><path d="m361.691406 195c0-12.601562-5.101562-23.699219-13.199218-31.800781l21.300781-21.300781c13.496093 13.5 21.898437 32.402343 21.898437 53.101562 0 8.398438-6.601562 15-15 15-8.402344 0-15-6.601562-15-15zm0 0" fill="#465a61"/><path d="m412.089844 99.601562c24.601562 24.597657 39.601562 58.199219 39.601562 95.398438 0 8.398438-6.601562 15-15 15-8.402344 0-15-6.601562-15-15 0-28.800781-11.699218-55.199219-30.902344-74.101562zm0 0" fill="#465a61"/><path d="m511.691406 195c0 8.398438-6.601562 15-15 15-8.402344 0-15-6.601562-15-15 0-45.601562-18.601562-86.699219-48.300781-116.699219l21-21c35.402344 35.097657 57.300781 84 57.300781 137.699219zm0 0" fill="#465a61"/><path d="m442.589844 473.597656c-30 26.101563-68.097656 38.402344-105.898438 38.402344-41.699218 0-83.402344-16.601562-114.898437-48.402344l-174.703125-173.699218c-60.597656-60.296876-62.398438-156.597657-7.199219-220.5l52.601563 10.5 61.195312 60.902343 13.203125 55.5c-4.800781 6-7.203125 13.796875-7.203125 21.597657 0 9 3.601562 17.402343 9.902344 24l100.199218 100.199218c12 11.703125 32.402344 13.203125 45.601563 3l47.402344 5.101563 66.597656 66.898437zm0 0" fill="#e63950"/><path d="m429.390625 417.101562 13.199219 56.496094c-30 26.101563-68.097656 38.402344-105.898438 38.402344-41.699218 0-83.402344-16.601562-114.898437-48.402344l-86.703125-86.699218 84.601562-84.898438 50.097656 50.097656c12.003907 11.703125 32.402344 13.203125 45.601563 3l47.402344 5.101563zm0 0" fill="#cc2e43"/><path d="m442.664062 473.578125-127.484374-128.484375 31.902343-31.90625c17.519531-17.488281 45.996094-17.476562 63.515625-.015625l63.605469 63.617187c17.578125 17.59375 17.578125 46.1875.027344 63.78125zm0 0" fill="#465a61"/><path d="m166.960938 196.582031-126.980469-127.179687 31.109375-31.914063c17.578125-17.546875 46.203125-17.5625 63.808594-.011719l63.605468 63.617188c17.476563 17.488281 17.488282 45.9375.074219 63.457031zm0 0" fill="#596c76"/></svg>