<?xml version="1.0" encoding="iso-8859-1"?>
<!-- Generator: Adobe Illustrator 19.0.0, SVG Export Plug-In . SVG Version: 6.00 Build 0)  -->
<svg version="1.1" id="Capa_1" xmlns="http://www.w3.org/2000/svg" xmlns:xlink="http://www.w3.org/1999/xlink" x="0px" y="0px"
	 viewBox="0 0 511.999 511.999" style="enable-background:new 0 0 511.999 511.999;" xml:space="preserve">
<polygon style="fill:#A8D3D8;" points="46.954,224.38 46.954,321.355 352.554,321.355 287.222,224.38 "/>
<rect x="46.954" y="224.379" style="fill:#DEECF1;" width="191.37" height="96.97"/>
<rect x="46.954" y="224.379" style="fill:#FF3F5C;" width="104.46" height="96.97"/>
<path style="fill:#C2132C;" d="M374.851,312.906l-66.428-97.848c-2.8-4.124-7.461-6.594-12.446-6.594H44.203
	c-8.308,0-15.044,6.735-15.044,15.044c0,8.308,6.735,15.044,15.044,15.044h243.804l61.952,91.253
	c2.91,4.287,7.642,6.595,12.46,6.595c2.909,0,5.848-0.841,8.436-2.598C377.728,329.135,379.518,319.779,374.851,312.906z"/>
<path style="fill:#FF3F5C;" d="M238.329,208.464H44.203c-8.308,0-15.044,6.735-15.044,15.044c0,8.308,6.735,15.044,15.044,15.044
	h194.126L238.329,208.464L238.329,208.464z"/>
<path style="fill:#C2132C;" d="M392.185,306.312H46.336C20.787,306.312,0,327.098,0,352.649v73.478
	c0,25.55,20.787,46.336,46.336,46.336h419.327c25.55,0,46.336-20.787,46.336-46.336C512,360.061,458.252,306.312,392.185,306.312z"
	/>
<path style="fill:#FF3F5C;" d="M238.329,306.312H46.336C20.787,306.312,0,327.098,0,352.649v73.478
	c0,25.55,20.787,46.336,46.336,46.336h191.992L238.329,306.312L238.329,306.312z"/>
<g>
	<path style="fill:#F2A01C;" d="M404.077,67.75C361.364,25.036,304.656,1.512,244.403,1.512S127.443,25.036,84.73,67.75
		c-5.875,5.875-5.875,15.4,0,21.274c2.937,2.938,6.787,4.406,10.637,4.406s7.7-1.469,10.637-4.406
		c37.031-37.031,86.182-57.425,138.399-57.425s101.369,20.394,138.4,57.425c5.874,5.875,15.4,5.875,21.275,0
		C409.953,83.149,409.953,73.625,404.077,67.75z"/>
	<path style="fill:#F2A01C;" d="M244.403,61.798c-42.152,0-81.781,16.415-111.586,46.221c-5.875,5.875-5.875,15.4,0,21.275
		c5.874,5.874,15.4,5.875,21.274-0.001c24.123-24.123,56.196-37.408,90.311-37.408s66.189,13.285,90.312,37.409
		c2.937,2.937,6.787,4.406,10.637,4.406s7.7-1.469,10.637-4.406c5.875-5.875,5.875-15.4,0-21.274
		C326.184,78.212,286.554,61.798,244.403,61.798z"/>
	<path style="fill:#F2A01C;" d="M244.404,123.089c-22.061,0-42.803,8.591-58.403,24.191c-5.875,5.875-5.875,15.4,0,21.275
		c5.874,5.874,15.4,5.875,21.274,0c9.918-9.918,23.104-15.38,37.129-15.38c14.026,0,27.212,5.462,37.129,15.379
		c2.937,2.938,6.787,4.407,10.637,4.406c3.849,0,7.7-1.469,10.637-4.406c5.875-5.875,5.875-15.4,0-21.275
		C287.209,131.681,266.467,123.089,244.404,123.089z"/>
</g>
<g>
	<path style="fill:#FFC87D;" d="M244.403,1.512c-60.254,0-116.96,23.524-159.673,66.238c-5.875,5.875-5.875,15.4,0,21.274
		c2.937,2.938,6.787,4.406,10.637,4.406s7.7-1.469,10.637-4.406c37.031-37.031,86.182-57.425,138.399-57.425V1.512z"/>
	<path style="fill:#FFC87D;" d="M244.403,61.798c-42.152,0-81.781,16.415-111.586,46.221c-5.875,5.875-5.875,15.4,0,21.275
		c5.874,5.874,15.4,5.875,21.274-0.001c24.123-24.123,56.196-37.408,90.311-37.408L244.403,61.798L244.403,61.798z"/>
	<path style="fill:#FFC87D;" d="M244.404,123.089c-22.061,0-42.803,8.591-58.403,24.191c-5.875,5.875-5.875,15.4,0,21.275
		c5.874,5.874,15.4,5.875,21.274,0c9.918-9.918,23.104-15.38,37.129-15.38V123.089z"/>
</g>
<path style="fill:#DEECF1;" d="M295.977,356.482h-23.76c-8.308,0-15.044,6.735-15.044,15.044c0,8.308,6.735,15.044,15.044,15.044
	h23.76c8.308,0,15.044-6.735,15.044-15.044C311.021,363.218,304.285,356.482,295.977,356.482z"/>
<path style="fill:#3B4A51;" d="M106.794,404.354c-29.26,0-53.066,23.805-53.066,53.066s23.805,53.066,53.066,53.066
	s53.066-23.805,53.066-53.066S136.054,404.354,106.794,404.354z"/>
<g>
	<path style="fill:#6099B1;" d="M106.794,404.354c-29.26,0-53.066,23.805-53.066,53.066s23.805,53.066,53.066,53.066V404.354z"/>
	<circle style="fill:#6099B1;" cx="106.79" cy="457.419" r="22.785"/>
</g>
<path style="fill:#DEECF1;" d="M106.794,480.205c-12.584,0-22.785-10.201-22.785-22.785s10.201-22.785,22.785-22.785
	C106.794,434.635,106.794,480.205,106.794,480.205z"/>
<path style="fill:#3B4A51;" d="M384.343,404.354c-29.261,0-53.066,23.805-53.066,53.066s23.805,53.066,53.066,53.066
	c29.26,0,53.066-23.805,53.066-53.066S413.604,404.354,384.343,404.354z"/>
<g>
	<path style="fill:#6099B1;" d="M384.343,404.354c-29.261,0-53.066,23.805-53.066,53.066s23.805,53.066,53.066,53.066V404.354z"/>
	<circle style="fill:#6099B1;" cx="384.34" cy="457.419" r="22.785"/>
</g>
<path style="fill:#DEECF1;" d="M384.343,480.205c-12.584,0-22.785-10.201-22.785-22.785s10.201-22.785,22.785-22.785V480.205z"/>
<g>
</g>
<g>
</g>
<g>
</g>
<g>
</g>
<g>
</g>
<g>
</g>
<g>
</g>
<g>
</g>
<g>
</g>
<g>
</g>
<g>
</g>
<g>
</g>
<g>
</g>
<g>
</g>
<g>
</g>
</svg>
